<svg xmlns="http://www.w3.org/2000/svg" width="816.216" height="621" viewBox="0 0 816.216 621">
  <g id="undraw_order_confirmed_re_g0if" transform="translate(0)">
    <path id="Caminho_18" data-name="Caminho 18" d="M518.5,268.281h-2.978v-81.57A47.211,47.211,0,0,0,468.313,139.5H295.495a47.211,47.211,0,0,0-47.211,47.211v447.5A47.211,47.211,0,0,0,295.5,681.423H468.312a47.211,47.211,0,0,0,47.211-47.211V326.344H518.5Z" transform="translate(-191.892 -139.5)" fill="#3c3c42"/>
    <path id="Caminho_19" data-name="Caminho 19" d="M470.217,151.783H447.659a16.75,16.75,0,0,1-15.509,23.076h-99a16.75,16.75,0,0,1-15.508-23.076h-21.07a35.256,35.256,0,0,0-35.256,35.256V633.884a35.256,35.256,0,0,0,35.257,35.257H470.217a35.256,35.256,0,0,0,35.256-35.257h0V187.039a35.256,35.256,0,0,0-35.256-35.256Z" transform="translate(-191.892 -139.5)" fill="#fff"/>
    <path id="Caminho_20" data-name="Caminho 20" d="M573.892,681.5h-381a1,1,0,1,1,0-2h381a1,1,0,0,1,0,2Z" transform="translate(-191.892 -139.5)" fill="#cbcbcb"/>
    <path id="Ellipse_44" data-name="Ellipse 44" d="M84.446,0A84.446,84.446,0,1,1,0,84.446,84.446,84.446,0,0,1,84.446,0Z" transform="translate(107.054 176.788)" fill="#8d1dfc"/>
    <path id="Path_395" data-name="Path 395" d="M375.024,432.947a8.758,8.758,0,0,1-5.269-1.751l-.094-.071-19.846-15.182a8.819,8.819,0,1,1,10.732-14L373.4,411.8l30.376-39.629a8.816,8.816,0,0,1,12.36-1.633l0,0-.189.262.194-.262a8.826,8.826,0,0,1,1.631,12.362L382.046,429.5a8.821,8.821,0,0,1-7.015,3.439Z" transform="translate(-191.892 -139.5)" fill="#fff"/>
    <path id="Caminho_21" data-name="Caminho 21" d="M886.137,689.8a26.261,26.261,0,0,1,3.606-4.6c.564-.586,1.16-1.137,1.774-1.674a28.142,28.142,0,0,1,46.4,16.007c4.124-15.252-6.612-30.276-17.406-41.816s-23.143-24.191-23.081-40c.03-8.8,4.333-16.643,10.829-22.46.2-.176.4-.352.605-.522a41.071,41.071,0,0,1,28.288-9.858c19.2,1.028,35.963,13.932,47.6,29.238,18.739,24.627,26.95,59.2,13.832,87.231-11.539,24.656-36.149,39.3-61.265,51.069q-5.261,2.466-10.5,4.783c-.023.006-.048.023-.071.029-.168.074-.336.148-.494.224l-2.157.95.331.216,1.033.669c-.358-.217-.712-.427-1.07-.644-.107-.066-.219-.127-.325-.193-12.336-7.4-24.843-15.232-33.365-26.788C881.867,719.669,878.313,702.484,886.137,689.8Z" transform="translate(-191.892 -139.5)" fill="#e6e6e6"/>
    <path id="Caminho_22" data-name="Caminho 22" d="M968.44,661.936a69.816,69.816,0,0,1,5.376,19.53,60.622,60.622,0,0,1-.731,18.012A77.675,77.675,0,0,1,957.507,732.8a111.793,111.793,0,0,1-20.182,19.62q-5.261,2.466-10.5,4.783c-.023.006-.048.023-.072.029-.168.074-.336.148-.494.224l-2.157.95.331.216,1.033.669c-.358-.217-.712-.427-1.07-.644-.106-.066-.219-.127-.325-.193a61.249,61.249,0,0,0-34.328-73.25c.564-.586,1.16-1.137,1.774-1.674a64.629,64.629,0,0,1,9.9,5.655,63.317,63.317,0,0,1,23.959,31.74,64.736,64.736,0,0,1,1.4,36.188c.619-.4,1.241-.82,1.845-1.234,11.492-7.75,22.083-17.057,30.061-28.471a72.26,72.26,0,0,0,12.822-32.585c1.529-12.834-1.682-25.454-7.412-36.905a151.257,151.257,0,0,0-23.7-33.67,171.875,171.875,0,0,0-31.776-27.322,1.236,1.236,0,0,1-.366-1.664,1.051,1.051,0,0,1,.605-.522.915.915,0,0,1,.78.158c1.44.961,2.868,1.931,4.279,2.929a173.821,173.821,0,0,1,31.765,29.016C954.721,637.4,962.94,649.126,968.44,661.936Z" transform="translate(-191.892 -139.5)" fill="#fff"/>
    <circle id="Ellipse_44-2" data-name="Ellipse 44" cx="17.934" cy="17.934" r="17.934" transform="translate(507.108 3.342)" fill="#e6e6e6"/>
    <circle id="Ellipse_44-3" data-name="Ellipse 44" cx="10.934" cy="10.934" r="10.934" transform="translate(737.108 257.342)" fill="#e6e6e6"/>
    <circle id="Ellipse_44-4" data-name="Ellipse 44" cx="10.934" cy="10.934" r="10.934" transform="translate(417.108 287.342)" fill="#e6e6e6"/>
    <path id="Caminho_23" data-name="Caminho 23" d="M626.108,760.5h381a1,1,0,0,0,0-2h-381a1,1,0,0,0,0,2Z" transform="translate(-191.892 -139.5)" fill="#cbcbcb"/>
    <path id="Caminho_24" data-name="Caminho 24" d="M965.062,236.135a14.652,14.652,0,0,0-28.136-7.426l-30.917,35.444,9.072,25.337,31.093-41.415a14.573,14.573,0,0,0,18.889-11.94Z" transform="translate(-191.892 -139.5)" fill="#ffb7b7"/>
    <path id="Caminho_25" data-name="Caminho 25" d="M645.013,234.549,747.642,125.02,733.8,103.012,605.076,211.876Z" fill="#29292e"/>
    <circle id="Elipse_19" data-name="Elipse 19" cx="36" cy="36" r="36" transform="translate(586.108 96)" fill="#3c3c42"/>
    <path id="Caminho_26" data-name="Caminho 26" d="M816.894,251.163A75.485,75.485,0,0,1,844.357,233.4c6.639-2.459,13.864-3.979,20.8-2.582s13.5,6.2,15.44,13.008c1.583,5.568-.052,11.564-2.509,16.806s-5.738,10.1-7.725,15.54a35.468,35.468,0,0,0,35.689,47.562c-6.819.914-13.106,4.119-19.771,5.825s-14.533,1.59-19.486-3.185c-5.241-5.052-5.346-13.267-5.093-20.543l1.13-32.445c.192-5.515.356-11.208-1.633-16.355s-6.716-9.656-12.235-9.609c-4.183.035-7.885,2.569-11.239,5.068s-6.9,5.165-11.071,5.536-8.923-2.711-8.611-6.882Z" transform="translate(-191.892 -139.5)" fill="#3c3c42"/>
    <path id="Caminho_27" data-name="Caminho 27" d="M677.269,513.223A14.652,14.652,0,0,1,666.23,486.3l31.1-35.284,26.3,5.683-37,36.238a14.573,14.573,0,0,1-9.369,20.287Z" transform="translate(-191.892 -139.5)" fill="#ffb7b7"/>
    <path id="Caminho_28" data-name="Caminho 28" d="M587.7,247.4l-77.515,97.3-23.628-10.848,91.11-141.845Z" fill="#29292e"/>
    <path id="Caminho_29" data-name="Caminho 29" d="M525.848,541.211l-18.474-.29,2.222,62.966h16.249Z" fill="#ffb7b7"/>
    <path id="Caminho_30" data-name="Caminho 30" d="M721.882,738.082h-32a20.4,20.4,0,0,0-20.394,20.392v.664l52.4,0Z" transform="translate(-191.892 -139.5)" fill="#2f2e41"/>
    <path id="Caminho_31" data-name="Caminho 31" d="M648.165,524.511l-20.181,12.956,40.368,48.565,13.674-8.779Z" fill="#ffb7b7"/>
    <path id="Caminho_32" data-name="Caminho 32" d="M874.54,710.049l-26.929,17.289h0a20.4,20.4,0,0,0-6.143,28.179l.358.558,44.091-28.307Z" transform="translate(-191.892 -139.5)" fill="#2f2e41"/>
    <path id="Caminho_33" data-name="Caminho 33" d="M847.247,471.74S802.407,322.813,788,320.8s-37.628,38.213-37.628,38.213c-30.1,38.408-61.144,162.821-61.144,162.821s51.747,3.238,89.573,23.363,82.468-1.019,82.468-1.019Z" transform="translate(-191.892 -139.5)" fill="#29292e"/>
    <path id="Caminho_34" data-name="Caminho 34" d="M847.247,471.74S802.407,322.813,788,320.8s-31.731,38.621-31.731,38.621c-15,62-67.041,162.413-67.041,162.413s51.747,3.238,89.573,23.363,82.468-1.019,82.468-1.019Z" transform="translate(-191.892 -139.5)" fill="#09090a" opacity="0.1"/>
    <path id="Caminho_35" data-name="Caminho 35" d="M618.567,287.682v74.835l8.807,108.4,44,82-21,15-60-78-23.731-77.449L529.374,583.921l-28-2L520.82,344.21l36.9-66.91Z" fill="#3c3c42"/>
    <path id="Caminho_36" data-name="Caminho 36" d="M765.25,354.8c-14,14-1,29-1,29l-16,36,63,17,22.016-98.378-15-16c-30-1-30.016-1.622-30.016-1.622C782.994,325.944,765.25,354.8,765.25,354.8Z" transform="translate(-191.892 -139.5)" fill="#8d1dfc"/>
    <path id="Caminho_37" data-name="Caminho 37" d="M835.8,328.23a26.884,26.884,0,0,0-37.777,5.913c-15.838,22.052-30.482,57.661-10.3,102.072,32.4,71.31,60.593,107.814,72.055,107.811a4.559,4.559,0,0,0,1.473-.231c7.055-2.394,17.256-14.332,19.1-24.852.661-3.766.5-9.011-4-12.612-12.935-10.346-36.158-42.561-43.4-84.964-4-23.43,3.76-44.772,10.978-58.55a26.879,26.879,0,0,0-7.777-34.329h0Z" transform="translate(-191.892 -139.5)" fill="#29292e"/>
    <circle id="Elipse_20" data-name="Elipse 20" cx="26.5" cy="26.5" r="26.5" transform="translate(575.281 130.669) rotate(-28.663)" fill="#ffb7b7"/>
    <path id="Caminho_38" data-name="Caminho 38" d="M765.872,278.707h38.266l.393-5.494,1.962,5.494h5.892l.778-10.888,3.889,10.888h11.4v-.539a28.624,28.624,0,0,0-28.592-28.592h-5.4a28.625,28.625,0,0,0-28.592,28.593Z" transform="translate(-191.892 -139.5)" fill="#3c3c42"/>
    <path id="Caminho_39" data-name="Caminho 39" d="M822.67,298.454l16.33-5.3V253.5H808.156l.764.762C819.544,264.873,831.36,302.52,822.67,298.454Z" transform="translate(-191.892 -139.5)" fill="#3c3c42"/>
  </g>
</svg>
